# xmcd CD database file
#
# Track frame offsets:
#	225
#	24420
#	43035
#	57788
#	75452
#	93798
#	122532
#	135186
#	157597
#	173846
#	200945
#	218009
#
# Disc length: 3146 seconds
#
# Revision: 0
# Processed by: cddbd v1.5.1PL0 Copyright (c) Steve Scherf et al.
# Submitted via: cdripper 1.0.7
#
DISCID=8b0c470c
DTITLE=Vance Kelly - Hands Off!
DYEAR=1998
DGENRE=Blues
TTITLE0=Mustang Sally
TTITLE1=Stay With It
TTITLE2=Little Red Rooster
TTITLE3=Don't Make Me Wait
TTITLE4=Crying for You
TTITLE5=Bad Taste in My Mouth
TTITLE6=The Jam
TTITLE7=If Loving You Is Wrong
TTITLE8=Hands Off
TTITLE9=Straighten It Out
TTITLE10=Blues Man
TTITLE11=Playing Days Are Over
EXTD=YEAR: 1998
EXTT0=
EXTT1=
EXTT2=
EXTT3=
EXTT4=
EXTT5=
EXTT6=
EXTT7=
EXTT8=
EXTT9=
EXTT10=
EXTT11=
PLAYORDER=
